<svg xmlns="http://www.w3.org/2000/svg"  viewBox="0 0 80 80" width="150px" height="150px"><path d="M 21 10 C 14.936593 10 10 14.936593 10 21 L 10 57 C 10 63.063407 14.936593 68 21 68 L 57 68 A 1.0001 1.0001 0 0 0 57.980469 66.804688 L 57.583984 64.822266 L 68.322266 74.734375 A 1.0001 1.0001 0 0 0 70 74 L 70 21 C 70 14.936593 65.063407 10 59 10 L 21 10 z M 21 12 L 59 12 C 63.982593 12 68 16.017407 68 21 L 68 71.716797 L 56.677734 61.265625 A 1.0001 1.0001 0 0 0 55.019531 62.195312 L 55.78125 66 L 21 66 C 16.017407 66 12 61.982593 12 57 L 12 21 C 12 16.017407 16.017407 12 21 12 z M 20 15 A 1 1 0 0 0 20 17 A 1 1 0 0 0 20 15 z M 24 15 A 1 1 0 0 0 24 17 A 1 1 0 0 0 24 15 z M 28 15 A 1 1 0 0 0 28 17 A 1 1 0 0 0 28 15 z M 32 15 A 1 1 0 0 0 32 17 A 1 1 0 0 0 32 15 z M 36 15 A 1 1 0 0 0 36 17 A 1 1 0 0 0 36 15 z M 40 15 A 1 1 0 0 0 40 17 A 1 1 0 0 0 40 15 z M 44 15 A 1 1 0 0 0 44 17 A 1 1 0 0 0 44 15 z M 48 15 A 1 1 0 0 0 48 17 A 1 1 0 0 0 48 15 z M 52 15 A 1 1 0 0 0 52 17 A 1 1 0 0 0 52 15 z M 56 15 A 1 1 0 0 0 56 17 A 1 1 0 0 0 56 15 z M 60 15 A 1 1 0 0 0 60 17 A 1 1 0 0 0 60 15 z M 45.435547 23.125 A 1.0001 1.0001 0 0 0 44.544922 23.710938 C 44.544922 23.710938 44.027861 24.830004 43.890625 26.251953 A 1.0001 1.0001 0 0 0 43.888672 26.28125 C 42.210609 26.047827 40.80995 26 40 26 C 39.19005 26 37.789391 26.047827 36.111328 26.28125 A 1.0001 1.0001 0 0 0 36.109375 26.253906 C 35.972139 24.831957 35.455078 23.710937 35.455078 23.710938 A 1.0001 1.0001 0 0 0 34.490234 23.126953 A 1.0001 1.0001 0 0 0 34.464844 23.128906 C 34.464844 23.128906 28.651807 23.495652 24.832031 26.529297 A 1.0001 1.0001 0 0 0 24.779297 26.574219 C 24.09779 27.196411 23.603118 28.137862 22.990234 29.478516 C 22.37735 30.819169 21.735436 32.520355 21.146484 34.445312 C 19.968577 38.295184 19 43.029826 19 47.484375 A 1.0001 1.0001 0 0 0 19.132812 47.982422 C 20.479771 50.320657 22.931774 51.726881 25.222656 52.607422 C 27.513538 53.487963 29.622713 53.840499 30.707031 53.875 A 1.0001 1.0001 0 0 0 31.542969 53.46875 L 33.869141 50.308594 C 35.608961 50.721732 37.64827 51 40 51 C 42.35173 51 44.391039 50.721732 46.130859 50.308594 L 48.457031 53.46875 A 1.0001 1.0001 0 0 0 49.292969 53.875 C 50.377925 53.84052 52.486641 53.489816 54.777344 52.609375 C 57.068046 51.728934 59.520325 50.321071 60.867188 47.982422 A 1.0001 1.0001 0 0 0 61 47.484375 C 61 43.029826 60.031415 38.293519 58.853516 34.443359 C 58.264566 32.51828 57.622647 30.817308 57.009766 29.476562 C 56.396884 28.135818 55.902251 27.194495 55.220703 26.572266 A 1.0001 1.0001 0 0 0 55.167969 26.527344 C 51.348193 23.493699 45.535156 23.126953 45.535156 23.126953 A 1.0001 1.0001 0 0 0 45.435547 23.125 z M 46.179688 25.267578 C 47.29039 25.4068 51.205922 25.967617 53.884766 28.070312 C 54.043384 28.221545 54.630978 29.082596 55.191406 30.308594 C 55.757337 31.546629 56.375106 33.178252 56.941406 35.029297 C 58.044801 38.635925 58.922697 43.079424 58.96875 47.154297 C 57.948009 48.761481 56.037288 49.982419 54.060547 50.742188 C 52.199521 51.457481 50.531907 51.695194 49.6875 51.767578 L 48.179688 49.71875 C 48.939012 49.460793 49.62454 49.18545 50.224609 48.90625 C 52.492263 47.851159 53.689453 46.724609 53.689453 46.724609 A 1.0002018 1.0002018 0 1 0 52.310547 45.275391 C 52.310547 45.275391 51.411706 46.148841 49.380859 47.09375 C 47.350013 48.038659 44.251588 49 40 49 C 35.748412 49 32.649987 48.038659 30.619141 47.09375 C 28.588294 46.148841 27.689453 45.275391 27.689453 45.275391 A 1.0001 1.0001 0 0 0 26.964844 44.990234 A 1.0001 1.0001 0 0 0 26.310547 46.724609 C 26.310547 46.724609 27.507737 47.851159 29.775391 48.90625 C 30.37546 49.18545 31.060988 49.460793 31.820312 49.71875 L 30.3125 51.767578 C 29.469014 51.695158 27.802665 51.455642 25.941406 50.740234 C 23.964359 49.980321 22.051949 48.760969 21.03125 47.154297 C 21.0773 43.079437 21.955202 38.635676 23.058594 35.029297 C 23.624892 33.17838 24.242665 31.548487 24.808594 30.310547 C 25.36902 29.084643 25.956577 28.223531 26.115234 28.072266 C 28.793905 25.969698 32.70925 25.408813 33.820312 25.269531 C 33.941223 25.615588 34.056988 25.80133 34.119141 26.445312 A 1.0001 1.0001 0 0 0 34.150391 26.634766 C 32.064232 27.083716 29.756584 27.836273 27.613281 29.150391 A 1.0001 1.0001 0 1 0 28.658203 30.855469 C 32.836333 28.293744 38.162585 28 40 28 C 41.837415 28 47.163667 28.293744 51.341797 30.855469 A 1.0001 1.0001 0 1 0 52.386719 29.150391 C 50.242782 27.835885 47.934294 27.083659 45.847656 26.634766 A 1.0001 1.0001 0 0 0 45.880859 26.443359 C 45.943009 25.799377 46.058777 25.613635 46.179688 25.267578 z M 34 36 C 32.708334 36 31.617385 36.619003 30.955078 37.488281 C 30.292771 38.357559 30 39.434524 30 40.5 C 30 41.565476 30.292771 42.642441 30.955078 43.511719 C 31.617385 44.380997 32.708334 45 34 45 C 35.291666 45 36.382615 44.380997 37.044922 43.511719 C 37.707229 42.642441 38 41.565476 38 40.5 C 38 39.434524 37.707229 38.357559 37.044922 37.488281 C 36.382615 36.619003 35.291666 36 34 36 z M 46 36 C 44.708334 36 43.617385 36.619003 42.955078 37.488281 C 42.292771 38.357559 42 39.434524 42 40.5 C 42 41.565476 42.292771 42.642441 42.955078 43.511719 C 43.617385 44.380997 44.708334 45 46 45 C 47.291666 45 48.382615 44.380997 49.044922 43.511719 C 49.707229 42.642441 50 41.565476 50 40.5 C 50 39.434524 49.707229 38.357559 49.044922 37.488281 C 48.382615 36.619003 47.291666 36 46 36 z M 34 38 C 34.708333 38 35.117385 38.255997 35.455078 38.699219 C 35.792771 39.142441 36 39.815476 36 40.5 C 36 41.184524 35.792771 41.857559 35.455078 42.300781 C 35.117385 42.744003 34.708333 43 34 43 C 33.291667 43 32.882615 42.744003 32.544922 42.300781 C 32.207229 41.857559 32 41.184524 32 40.5 C 32 39.815476 32.207229 39.142441 32.544922 38.699219 C 32.882615 38.255997 33.291667 38 34 38 z M 46 38 C 46.708333 38 47.117385 38.255997 47.455078 38.699219 C 47.792771 39.142441 48 39.815476 48 40.5 C 48 41.184524 47.792771 41.857559 47.455078 42.300781 C 47.117385 42.744003 46.708333 43 46 43 C 45.291667 43 44.882615 42.744003 44.544922 42.300781 C 44.207229 41.857559 44 41.184524 44 40.5 C 44 39.815476 44.207229 39.142441 44.544922 38.699219 C 44.882615 38.255997 45.291667 38 46 38 z M 20 61 A 1 1 0 0 0 20 63 A 1 1 0 0 0 20 61 z M 24 61 A 1 1 0 0 0 24 63 A 1 1 0 0 0 24 61 z M 28 61 A 1 1 0 0 0 28 63 A 1 1 0 0 0 28 61 z M 32 61 A 1 1 0 0 0 32 63 A 1 1 0 0 0 32 61 z M 36 61 A 1 1 0 0 0 36 63 A 1 1 0 0 0 36 61 z M 40 61 A 1 1 0 0 0 40 63 A 1 1 0 0 0 40 61 z M 44 61 A 1 1 0 0 0 44 63 A 1 1 0 0 0 44 61 z M 48 61 A 1 1 0 0 0 48 63 A 1 1 0 0 0 48 61 z M 52 61 A 1 1 0 0 0 52 63 A 1 1 0 0 0 52 61 z"/></svg>