<svg width="512" height="160.66" xmlns="http://www.w3.org/2000/svg"><path d="m61.04 2.346 1.807 7.304a72.591 72.591 0 0 0-20.18 8.346l-3.866-6.45a80.02 80.02 0 0 1 22.239-9.2zm38.554 0L97.787 9.65a72.591 72.591 0 0 1 20.18 8.346l3.891-6.45a80.02 80.02 0 0 0-22.264-9.2zM11.541 38.805a80.02 80.02 0 0 0-9.2 22.239l7.305 1.807a72.591 72.591 0 0 1 8.346-20.18zM7.525 80.321a72.666 72.666 0 0 1 .816-10.906l-7.443-1.13a80.61 80.61 0 0 0 0 24.072l7.443-1.13a72.666 72.666 0 0 1-.816-10.906zm114.31 68.775-3.866-6.45a72.591 72.591 0 0 1-20.156 8.345l1.808 7.304a80.02 80.02 0 0 0 22.214-9.199zm31.275-68.775a72.666 72.666 0 0 1-.816 10.906l7.442 1.13a80.61 80.61 0 0 0 0-24.072l-7.442 1.13a72.666 72.666 0 0 1 .816 10.906zm5.183 19.277-7.304-1.807a72.591 72.591 0 0 1-8.346 20.18l6.45 3.891a80.02 80.02 0 0 0 9.2-22.264zm-67.069 52.711a73.306 73.306 0 0 1-21.812 0l-1.13 7.442a80.61 80.61 0 0 0 24.072 0zm47.691-28.803a73.055 73.055 0 0 1-15.424 15.412l4.468 6.062a80.447 80.447 0 0 0 17.018-16.968zm-15.424-101.78a73.055 73.055 0 0 1 15.424 15.424l6.062-4.518a80.447 80.447 0 0 0-16.968-16.968zM21.721 37.15a73.055 73.055 0 0 1 15.424-15.424l-4.518-6.062A80.447 80.447 0 0 0 15.66 32.632zm127.37 1.657-6.45 3.865a72.591 72.591 0 0 1 8.345 20.156l7.305-1.807a80.02 80.02 0 0 0-9.2-22.214zM69.41 8.347a73.306 73.306 0 0 1 21.812 0l1.13-7.442a80.61 80.61 0 0 0-24.071 0zm-43.826 138.63-15.55 3.628 3.627-15.55-7.33-1.72-3.626 15.55a7.53 7.53 0 0 0 9.049 9.049l15.537-3.564zM7.9 126.622l7.33 1.706 2.51-10.78a72.478 72.478 0 0 1-8.095-19.755L2.34 99.6a79.719 79.719 0 0 0 7.404 19.089zm35.141 16.315-10.78 2.51 1.706 7.33 7.932-1.846a79.719 79.719 0 0 0 19.089 7.405l1.807-7.304a72.478 72.478 0 0 1-19.704-8.145zm37.274-127.87a65.261 65.261 0 0 0-55.22 99.988l-6.276 26.77 26.77-6.276a65.261 65.261 0 1 0 34.727-120.48z" fill="#3a76f0"/><path d="M238.729 63.105q-.463-4.667-4.011-7.251-3.51-2.584-9.488-2.584-6.133 0-9.411 2.507-3.279 2.507-3.279 6.325-.077 4.243 3.626 6.441 3.741 2.16 8.87 3.356l7.098 1.697q6.865 1.543 12.188 4.474 5.36 2.931 8.408 7.56 3.085 4.59 3.085 11.185-.038 10.838-8.138 17.279-8.06 6.402-22.525 6.402-14.386 0-22.949-6.557-8.562-6.556-8.87-19.362h16.16q.424 5.94 4.667 8.948 4.281 2.97 10.8 2.97 6.363 0 10.143-2.7 3.818-2.7 3.857-7.02-.038-4.01-3.51-6.17t-9.912-3.703l-8.601-2.16q-9.99-2.391-15.775-7.598-5.786-5.207-5.747-13.924-.039-7.174 3.818-12.535 3.896-5.4 10.684-8.37 6.789-3.008 15.428-3.008 8.794 0 15.351 3.008 6.596 3.009 10.26 8.37 3.664 5.361 3.78 12.419zm27.961 56.273V60.135h16.431v59.243zm8.254-66.88q-3.626 0-6.248-2.43-2.623-2.468-2.623-5.901t2.623-5.863q2.622-2.43 6.248-2.43 3.664 0 6.287 2.43 2.622 2.43 2.622 5.863 0 3.433-2.622 5.901-2.623 2.43-6.287 2.43zm47.986 90.331q-11.957 0-18.783-4.783-6.827-4.744-8.293-11.725l15.196-2.044q1.003 2.7 3.896 4.706 2.931 2.044 8.37 2.044 5.36 0 8.832-2.623 3.51-2.584 3.51-8.678v-10.838h-.694q-1.62 3.664-5.709 6.672-4.088 2.97-11.185 2.97-6.672 0-12.149-3.124-5.438-3.124-8.678-9.526-3.201-6.403-3.201-16.238 0-10.105 3.278-16.816 3.317-6.712 8.755-10.067 5.477-3.395 11.957-3.395 4.976 0 8.331 1.698 3.356 1.658 5.439 4.126 2.083 2.469 3.162 4.899h.618v-9.951h16.315v59.82q0 7.56-3.742 12.652-3.702 5.091-10.22 7.637-6.519 2.584-15.005 2.584zm.347-36.641q5.94 0 9.18-4.397 3.278-4.397 3.278-12.227 0-7.791-3.24-12.458t-9.218-4.667q-6.094 0-9.295 4.783-3.163 4.782-3.163 12.342 0 7.675 3.202 12.149 3.2 4.474 9.256 4.474zm58.163-21.059v34.25h-16.431V60.136h15.659v10.452h.694q2.006-5.168 6.596-8.177 4.628-3.047 11.224-3.047 9.256 0 14.849 5.978 5.592 5.94 5.592 16.316v37.72h-16.43v-34.79q.038-5.438-2.778-8.485-2.815-3.085-7.752-3.085-4.976 0-8.1 3.2-3.085 3.164-3.124 8.91zm67.99 35.368q-8.485 0-14.078-4.436-5.593-4.435-5.593-13.229 0-6.634 3.125-10.414 3.124-3.78 8.176-5.515 5.092-1.774 10.954-2.314 7.714-.772 11.031-1.62 3.317-.849 3.317-3.703v-.231q0-3.664-2.314-5.67-2.275-2.006-6.48-2.006-4.435 0-7.058 1.929-2.622 1.928-3.471 4.898l-15.196-1.234q1.697-8.1 8.408-12.844 6.75-4.744 17.395-4.744 6.596 0 12.342 2.083 5.747 2.083 9.257 6.518 3.548 4.397 3.548 11.455v39.958h-15.582v-8.215h-.463q-2.16 4.127-6.48 6.75-4.28 2.584-10.837 2.584zm4.705-11.339q5.4 0 8.871-3.124 3.472-3.163 3.472-7.83v-6.287q-.964.656-3.009 1.158-2.005.501-4.32.887-2.275.347-4.088.617-4.32.617-6.98 2.43-2.624 1.813-2.624 5.284 0 3.394 2.43 5.13 2.469 1.735 6.249 1.735zm57.855-68.77v78.99h-16.431v-78.99z" fill="#1b1b1b"/></svg>